<mxfile host="app.diagrams.net" agent="Mozilla/5.0 (Windows NT 10.0; Win64; x64; rv:132.0) Gecko/20100101 Firefox/132.0" version="24.8.4">
  <diagram name="Page-1" id="V3-oiZJ7zRGvkOipTJKD">
    <mxGraphModel dx="1235" dy="1701" grid="1" gridSize="10" guides="1" tooltips="1" connect="1" arrows="1" fold="1" page="1" pageScale="1" pageWidth="850" pageHeight="1100" math="0" shadow="0">
      <root>
        <mxCell id="0" />
        <mxCell id="1" parent="0" />
        <mxCell id="CBvx1TgoduzqQ8KUKisL-1" value="Airline" style="rounded=0;whiteSpace=wrap;html=1;fontSize=18;fontStyle=1" parent="1" vertex="1">
          <mxGeometry x="420" y="250" width="140" height="60" as="geometry" />
        </mxCell>
        <mxCell id="CBvx1TgoduzqQ8KUKisL-2" value="Employee" style="rounded=0;whiteSpace=wrap;html=1;fontSize=18;fontStyle=1" parent="1" vertex="1">
          <mxGeometry x="560" y="60" width="140" height="60" as="geometry" />
        </mxCell>
        <mxCell id="CBvx1TgoduzqQ8KUKisL-3" value="Aircraft" style="rounded=0;whiteSpace=wrap;html=1;fontSize=18;fontStyle=1" parent="1" vertex="1">
          <mxGeometry x="110" y="250" width="140" height="60" as="geometry" />
        </mxCell>
        <mxCell id="CBvx1TgoduzqQ8KUKisL-4" value="Route" style="rounded=0;whiteSpace=wrap;html=1;fontSize=18;fontStyle=1" parent="1" vertex="1">
          <mxGeometry x="187.5" y="570" width="140" height="60" as="geometry" />
        </mxCell>
        <mxCell id="CBvx1TgoduzqQ8KUKisL-5" value="Crew" style="rounded=0;whiteSpace=wrap;html=1;fontSize=18;fontStyle=1" parent="1" vertex="1">
          <mxGeometry x="180" y="20" width="140" height="60" as="geometry" />
        </mxCell>
        <mxCell id="CBvx1TgoduzqQ8KUKisL-6" value="Transaction" style="rounded=0;whiteSpace=wrap;html=1;fontSize=18;fontStyle=1" parent="1" vertex="1">
          <mxGeometry x="560" y="440" width="140" height="60" as="geometry" />
        </mxCell>
        <mxCell id="CBvx1TgoduzqQ8KUKisL-7" value="Has" style="rhombus;whiteSpace=wrap;html=1;strokeWidth=1;fontSize=14;fontStyle=0" parent="1" vertex="1">
          <mxGeometry x="590" y="150" width="80" height="80" as="geometry" />
        </mxCell>
        <mxCell id="CBvx1TgoduzqQ8KUKisL-8" value="Keeps" style="rhombus;whiteSpace=wrap;html=1;strokeWidth=1;fontSize=14;fontStyle=0" parent="1" vertex="1">
          <mxGeometry x="590" y="330" width="80" height="80" as="geometry" />
        </mxCell>
        <mxCell id="CBvx1TgoduzqQ8KUKisL-9" value="Owns" style="rhombus;whiteSpace=wrap;html=1;strokeWidth=1;fontSize=14;fontStyle=0" parent="1" vertex="1">
          <mxGeometry x="300" y="240" width="80" height="80" as="geometry" />
        </mxCell>
        <mxCell id="CBvx1TgoduzqQ8KUKisL-10" value="Assigned to" style="rhombus;whiteSpace=wrap;html=1;strokeWidth=1;fontSize=14;fontStyle=0" parent="1" vertex="1">
          <mxGeometry x="200" y="400" width="115" height="80" as="geometry" />
        </mxCell>
        <mxCell id="CBvx1TgoduzqQ8KUKisL-12" value="" style="endArrow=none;html=1;rounded=0;exitX=1;exitY=0;exitDx=0;exitDy=0;entryX=0;entryY=1;entryDx=0;entryDy=0;" parent="1" source="CBvx1TgoduzqQ8KUKisL-1" target="CBvx1TgoduzqQ8KUKisL-7" edge="1">
          <mxGeometry width="50" height="50" relative="1" as="geometry">
            <mxPoint x="400" y="320" as="sourcePoint" />
            <mxPoint x="450" y="270" as="targetPoint" />
          </mxGeometry>
        </mxCell>
        <mxCell id="CBvx1TgoduzqQ8KUKisL-13" value="" style="endArrow=none;html=1;rounded=0;exitX=0.5;exitY=0;exitDx=0;exitDy=0;entryX=0.5;entryY=1;entryDx=0;entryDy=0;shape=link;" parent="1" source="CBvx1TgoduzqQ8KUKisL-7" target="CBvx1TgoduzqQ8KUKisL-2" edge="1">
          <mxGeometry width="50" height="50" relative="1" as="geometry">
            <mxPoint x="570" y="260" as="sourcePoint" />
            <mxPoint x="620" y="220" as="targetPoint" />
          </mxGeometry>
        </mxCell>
        <mxCell id="CBvx1TgoduzqQ8KUKisL-14" value="" style="endArrow=none;html=1;rounded=0;exitX=1;exitY=1;exitDx=0;exitDy=0;entryX=0;entryY=0;entryDx=0;entryDy=0;" parent="1" source="CBvx1TgoduzqQ8KUKisL-1" target="CBvx1TgoduzqQ8KUKisL-8" edge="1">
          <mxGeometry width="50" height="50" relative="1" as="geometry">
            <mxPoint x="640" y="160" as="sourcePoint" />
            <mxPoint x="640" y="130" as="targetPoint" />
          </mxGeometry>
        </mxCell>
        <mxCell id="CBvx1TgoduzqQ8KUKisL-15" value="" style="endArrow=none;html=1;rounded=0;exitX=0.5;exitY=1;exitDx=0;exitDy=0;entryX=0.5;entryY=0;entryDx=0;entryDy=0;shape=link;" parent="1" source="CBvx1TgoduzqQ8KUKisL-8" target="CBvx1TgoduzqQ8KUKisL-6" edge="1">
          <mxGeometry width="50" height="50" relative="1" as="geometry">
            <mxPoint x="570" y="320" as="sourcePoint" />
            <mxPoint x="620" y="370" as="targetPoint" />
          </mxGeometry>
        </mxCell>
        <mxCell id="CBvx1TgoduzqQ8KUKisL-16" value="" style="endArrow=none;html=1;rounded=0;exitX=0;exitY=0.5;exitDx=0;exitDy=0;entryX=1;entryY=0.5;entryDx=0;entryDy=0;" parent="1" source="CBvx1TgoduzqQ8KUKisL-1" target="CBvx1TgoduzqQ8KUKisL-9" edge="1">
          <mxGeometry width="50" height="50" relative="1" as="geometry">
            <mxPoint x="570" y="320" as="sourcePoint" />
            <mxPoint x="620" y="360" as="targetPoint" />
          </mxGeometry>
        </mxCell>
        <mxCell id="CBvx1TgoduzqQ8KUKisL-17" value="" style="endArrow=none;html=1;rounded=0;exitX=1;exitY=0.5;exitDx=0;exitDy=0;entryX=0;entryY=0.5;entryDx=0;entryDy=0;shape=link;" parent="1" source="CBvx1TgoduzqQ8KUKisL-3" target="CBvx1TgoduzqQ8KUKisL-9" edge="1">
          <mxGeometry width="50" height="50" relative="1" as="geometry">
            <mxPoint x="430" y="290" as="sourcePoint" />
            <mxPoint x="390" y="290" as="targetPoint" />
          </mxGeometry>
        </mxCell>
        <mxCell id="CBvx1TgoduzqQ8KUKisL-18" value="" style="endArrow=none;html=1;rounded=0;exitX=0.5;exitY=1;exitDx=0;exitDy=0;entryX=0;entryY=0;entryDx=0;entryDy=0;shape=link;" parent="1" source="CBvx1TgoduzqQ8KUKisL-3" target="CBvx1TgoduzqQ8KUKisL-10" edge="1">
          <mxGeometry width="50" height="50" relative="1" as="geometry">
            <mxPoint x="260" y="290" as="sourcePoint" />
            <mxPoint x="310" y="290" as="targetPoint" />
          </mxGeometry>
        </mxCell>
        <mxCell id="CBvx1TgoduzqQ8KUKisL-19" value="" style="endArrow=none;html=1;rounded=0;exitX=0.5;exitY=1;exitDx=0;exitDy=0;entryX=0.5;entryY=0;entryDx=0;entryDy=0;" parent="1" source="CBvx1TgoduzqQ8KUKisL-10" target="CBvx1TgoduzqQ8KUKisL-4" edge="1">
          <mxGeometry width="50" height="50" relative="1" as="geometry">
            <mxPoint x="190" y="320" as="sourcePoint" />
            <mxPoint x="230" y="380" as="targetPoint" />
          </mxGeometry>
        </mxCell>
        <mxCell id="CBvx1TgoduzqQ8KUKisL-20" value="" style="endArrow=none;html=1;rounded=0;entryX=0.5;entryY=0;entryDx=0;entryDy=0;exitX=0;exitY=1;exitDx=0;exitDy=0;shape=link;" parent="1" source="CBvx1TgoduzqQ8KUKisL-22" target="CBvx1TgoduzqQ8KUKisL-3" edge="1">
          <mxGeometry width="50" height="50" relative="1" as="geometry">
            <mxPoint x="220" y="230" as="sourcePoint" />
            <mxPoint x="260" y="490" as="targetPoint" />
          </mxGeometry>
        </mxCell>
        <mxCell id="CBvx1TgoduzqQ8KUKisL-21" value="" style="endArrow=none;html=1;rounded=0;exitX=0.5;exitY=1;exitDx=0;exitDy=0;entryX=0.5;entryY=0;entryDx=0;entryDy=0;shape=link;" parent="1" source="CBvx1TgoduzqQ8KUKisL-5" target="CBvx1TgoduzqQ8KUKisL-22" edge="1">
          <mxGeometry width="50" height="50" relative="1" as="geometry">
            <mxPoint x="230" y="200" as="sourcePoint" />
            <mxPoint x="250" y="130" as="targetPoint" />
          </mxGeometry>
        </mxCell>
        <mxCell id="CBvx1TgoduzqQ8KUKisL-22" value="Has" style="rhombus;whiteSpace=wrap;html=1;strokeWidth=1;fontSize=14;fontStyle=0" parent="1" vertex="1">
          <mxGeometry x="192.5" y="130" width="115" height="80" as="geometry" />
        </mxCell>
        <mxCell id="CBvx1TgoduzqQ8KUKisL-23" value="Crew" style="rounded=0;whiteSpace=wrap;html=1;fontSize=18;fontStyle=1" parent="1" vertex="1">
          <mxGeometry x="185" y="25" width="130" height="50" as="geometry" />
        </mxCell>
        <mxCell id="CBvx1TgoduzqQ8KUKisL-24" value="1" style="text;html=1;align=center;verticalAlign=middle;resizable=0;points=[];autosize=1;strokeColor=none;fillColor=none;" parent="1" vertex="1">
          <mxGeometry x="545" y="220" width="30" height="30" as="geometry" />
        </mxCell>
        <mxCell id="CBvx1TgoduzqQ8KUKisL-25" value="M" style="text;html=1;align=center;verticalAlign=middle;resizable=0;points=[];autosize=1;strokeColor=none;fillColor=none;" parent="1" vertex="1">
          <mxGeometry x="600" y="120" width="30" height="30" as="geometry" />
        </mxCell>
        <mxCell id="CBvx1TgoduzqQ8KUKisL-26" value="1" style="text;html=1;align=center;verticalAlign=middle;resizable=0;points=[];autosize=1;strokeColor=none;fillColor=none;" parent="1" vertex="1">
          <mxGeometry x="390" y="250" width="30" height="30" as="geometry" />
        </mxCell>
        <mxCell id="CBvx1TgoduzqQ8KUKisL-27" value="M" style="text;html=1;align=center;verticalAlign=middle;resizable=0;points=[];autosize=1;strokeColor=none;fillColor=none;" parent="1" vertex="1">
          <mxGeometry x="250" y="250" width="30" height="30" as="geometry" />
        </mxCell>
        <mxCell id="CBvx1TgoduzqQ8KUKisL-28" value="M" style="text;html=1;align=center;verticalAlign=middle;resizable=0;points=[];autosize=1;strokeColor=none;fillColor=none;" parent="1" vertex="1">
          <mxGeometry x="155" y="310" width="30" height="30" as="geometry" />
        </mxCell>
        <mxCell id="CBvx1TgoduzqQ8KUKisL-29" value="M" style="text;html=1;align=center;verticalAlign=middle;resizable=0;points=[];autosize=1;strokeColor=none;fillColor=none;" parent="1" vertex="1">
          <mxGeometry x="230" y="540" width="30" height="30" as="geometry" />
        </mxCell>
        <mxCell id="CBvx1TgoduzqQ8KUKisL-30" value="1" style="text;html=1;align=center;verticalAlign=middle;resizable=0;points=[];autosize=1;strokeColor=none;fillColor=none;" parent="1" vertex="1">
          <mxGeometry x="155" y="220" width="30" height="30" as="geometry" />
        </mxCell>
        <mxCell id="CBvx1TgoduzqQ8KUKisL-31" value="1" style="text;html=1;align=center;verticalAlign=middle;resizable=0;points=[];autosize=1;strokeColor=none;fillColor=none;" parent="1" vertex="1">
          <mxGeometry x="220" y="80" width="30" height="30" as="geometry" />
        </mxCell>
        <mxCell id="CBvx1TgoduzqQ8KUKisL-32" value="M" style="text;html=1;align=center;verticalAlign=middle;resizable=0;points=[];autosize=1;strokeColor=none;fillColor=none;" parent="1" vertex="1">
          <mxGeometry x="600" y="410" width="30" height="30" as="geometry" />
        </mxCell>
        <mxCell id="CBvx1TgoduzqQ8KUKisL-37" value="name" style="ellipse;whiteSpace=wrap;html=1;fontSize=16;fontStyle=0" parent="1" vertex="1">
          <mxGeometry x="445" y="190" width="80" height="40" as="geometry" />
        </mxCell>
        <mxCell id="CBvx1TgoduzqQ8KUKisL-39" value="address" style="ellipse;whiteSpace=wrap;html=1;fontSize=16;fontStyle=0" parent="1" vertex="1">
          <mxGeometry x="495" y="150" width="80" height="40" as="geometry" />
        </mxCell>
        <mxCell id="CBvx1TgoduzqQ8KUKisL-40" value="contactPerson" style="ellipse;whiteSpace=wrap;html=1;fontSize=16;fontStyle=0" parent="1" vertex="1">
          <mxGeometry x="368" y="320" width="115" height="40" as="geometry" />
        </mxCell>
        <mxCell id="CBvx1TgoduzqQ8KUKisL-45" value="" style="endArrow=none;html=1;rounded=0;entryX=0.5;entryY=0;entryDx=0;entryDy=0;exitX=0.5;exitY=1;exitDx=0;exitDy=0;" parent="1" source="CBvx1TgoduzqQ8KUKisL-37" target="CBvx1TgoduzqQ8KUKisL-1" edge="1">
          <mxGeometry width="50" height="50" relative="1" as="geometry">
            <mxPoint x="550" y="110" as="sourcePoint" />
            <mxPoint x="570" y="115" as="targetPoint" />
          </mxGeometry>
        </mxCell>
        <mxCell id="CBvx1TgoduzqQ8KUKisL-46" value="" style="endArrow=none;html=1;rounded=0;entryX=0.75;entryY=0;entryDx=0;entryDy=0;exitX=0.5;exitY=1;exitDx=0;exitDy=0;" parent="1" source="CBvx1TgoduzqQ8KUKisL-39" target="CBvx1TgoduzqQ8KUKisL-1" edge="1">
          <mxGeometry width="50" height="50" relative="1" as="geometry">
            <mxPoint x="550" y="55" as="sourcePoint" />
            <mxPoint x="570" y="85" as="targetPoint" />
          </mxGeometry>
        </mxCell>
        <mxCell id="CBvx1TgoduzqQ8KUKisL-47" value="" style="endArrow=none;html=1;rounded=0;exitX=0.5;exitY=0;exitDx=0;exitDy=0;entryX=0.25;entryY=1;entryDx=0;entryDy=0;" parent="1" source="CBvx1TgoduzqQ8KUKisL-40" target="CBvx1TgoduzqQ8KUKisL-1" edge="1">
          <mxGeometry width="50" height="50" relative="1" as="geometry">
            <mxPoint x="600" y="50" as="sourcePoint" />
            <mxPoint x="590" y="70" as="targetPoint" />
          </mxGeometry>
        </mxCell>
        <mxCell id="CBvx1TgoduzqQ8KUKisL-48" value="" style="endArrow=none;html=1;rounded=0;entryX=0.5;entryY=1;entryDx=0;entryDy=0;exitX=0.5;exitY=0;exitDx=0;exitDy=0;" parent="1" source="CBvx1TgoduzqQ8KUKisL-54" target="CBvx1TgoduzqQ8KUKisL-1" edge="1">
          <mxGeometry width="50" height="50" relative="1" as="geometry">
            <mxPoint x="731.7157287525381" y="84.14213562373101" as="sourcePoint" />
            <mxPoint x="640" y="70" as="targetPoint" />
          </mxGeometry>
        </mxCell>
        <mxCell id="CBvx1TgoduzqQ8KUKisL-50" value="id" style="ellipse;whiteSpace=wrap;html=1;fontSize=16;fontStyle=4" parent="1" vertex="1">
          <mxGeometry x="405" y="210" width="40" height="30" as="geometry" />
        </mxCell>
        <mxCell id="CBvx1TgoduzqQ8KUKisL-51" value="" style="endArrow=none;html=1;rounded=0;entryX=0.25;entryY=0;entryDx=0;entryDy=0;exitX=1;exitY=1;exitDx=0;exitDy=0;" parent="1" source="CBvx1TgoduzqQ8KUKisL-50" target="CBvx1TgoduzqQ8KUKisL-1" edge="1">
          <mxGeometry width="50" height="50" relative="1" as="geometry">
            <mxPoint x="550" y="105" as="sourcePoint" />
            <mxPoint x="570" y="115" as="targetPoint" />
          </mxGeometry>
        </mxCell>
        <mxCell id="CBvx1TgoduzqQ8KUKisL-53" value="" style="group" parent="1" vertex="1" connectable="0">
          <mxGeometry x="483" y="340" width="80" height="40" as="geometry" />
        </mxCell>
        <mxCell id="CBvx1TgoduzqQ8KUKisL-54" value="phone" style="ellipse;whiteSpace=wrap;html=1;fontSize=16;fontStyle=0" parent="CBvx1TgoduzqQ8KUKisL-53" vertex="1">
          <mxGeometry width="80" height="40" as="geometry" />
        </mxCell>
        <mxCell id="CBvx1TgoduzqQ8KUKisL-55" value="phone" style="ellipse;whiteSpace=wrap;html=1;fontSize=16;fontStyle=0" parent="CBvx1TgoduzqQ8KUKisL-53" vertex="1">
          <mxGeometry x="5" y="5" width="70" height="30" as="geometry" />
        </mxCell>
        <mxCell id="CBvx1TgoduzqQ8KUKisL-33" value="1" style="text;html=1;align=center;verticalAlign=middle;resizable=0;points=[];autosize=1;strokeColor=none;fillColor=none;" parent="CBvx1TgoduzqQ8KUKisL-53" vertex="1">
          <mxGeometry x="50" y="-30" width="30" height="30" as="geometry" />
        </mxCell>
        <mxCell id="CBvx1TgoduzqQ8KUKisL-56" value="name" style="ellipse;whiteSpace=wrap;html=1;fontSize=16;fontStyle=0" parent="1" vertex="1">
          <mxGeometry x="490" y="15" width="80" height="40" as="geometry" />
        </mxCell>
        <mxCell id="CBvx1TgoduzqQ8KUKisL-57" value="id" style="ellipse;whiteSpace=wrap;html=1;fontSize=16;fontStyle=4" parent="1" vertex="1">
          <mxGeometry x="580" y="15" width="40" height="30" as="geometry" />
        </mxCell>
        <mxCell id="CBvx1TgoduzqQ8KUKisL-59" value="" style="endArrow=none;html=1;rounded=0;entryX=0.5;entryY=1;entryDx=0;entryDy=0;exitX=0;exitY=0.25;exitDx=0;exitDy=0;" parent="1" source="CBvx1TgoduzqQ8KUKisL-2" target="CBvx1TgoduzqQ8KUKisL-56" edge="1">
          <mxGeometry width="50" height="50" relative="1" as="geometry">
            <mxPoint x="550" y="200" as="sourcePoint" />
            <mxPoint x="535" y="260" as="targetPoint" />
          </mxGeometry>
        </mxCell>
        <mxCell id="CBvx1TgoduzqQ8KUKisL-60" value="" style="endArrow=none;html=1;rounded=0;entryX=0.5;entryY=1;entryDx=0;entryDy=0;exitX=0.25;exitY=0;exitDx=0;exitDy=0;" parent="1" source="CBvx1TgoduzqQ8KUKisL-2" target="CBvx1TgoduzqQ8KUKisL-57" edge="1">
          <mxGeometry width="50" height="50" relative="1" as="geometry">
            <mxPoint x="570" y="85" as="sourcePoint" />
            <mxPoint x="540" y="65" as="targetPoint" />
          </mxGeometry>
        </mxCell>
        <mxCell id="CBvx1TgoduzqQ8KUKisL-61" value="address" style="ellipse;whiteSpace=wrap;html=1;fontSize=16;fontStyle=0" parent="1" vertex="1">
          <mxGeometry x="630" y="10" width="80" height="40" as="geometry" />
        </mxCell>
        <mxCell id="CBvx1TgoduzqQ8KUKisL-62" value="" style="endArrow=none;html=1;rounded=0;entryX=0.5;entryY=1;entryDx=0;entryDy=0;exitX=0.5;exitY=0;exitDx=0;exitDy=0;" parent="1" source="CBvx1TgoduzqQ8KUKisL-2" target="CBvx1TgoduzqQ8KUKisL-61" edge="1">
          <mxGeometry width="50" height="50" relative="1" as="geometry">
            <mxPoint x="605" y="70" as="sourcePoint" />
            <mxPoint x="610" y="55" as="targetPoint" />
          </mxGeometry>
        </mxCell>
        <mxCell id="CBvx1TgoduzqQ8KUKisL-63" value="birthdate" style="ellipse;whiteSpace=wrap;html=1;fontSize=16;fontStyle=0" parent="1" vertex="1">
          <mxGeometry x="710" y="55" width="80" height="40" as="geometry" />
        </mxCell>
        <mxCell id="CBvx1TgoduzqQ8KUKisL-64" value="" style="endArrow=none;html=1;rounded=0;entryX=0;entryY=1;entryDx=0;entryDy=0;exitX=1;exitY=0.5;exitDx=0;exitDy=0;" parent="1" source="CBvx1TgoduzqQ8KUKisL-2" target="CBvx1TgoduzqQ8KUKisL-63" edge="1">
          <mxGeometry width="50" height="50" relative="1" as="geometry">
            <mxPoint x="640" y="70" as="sourcePoint" />
            <mxPoint x="680" y="60" as="targetPoint" />
          </mxGeometry>
        </mxCell>
        <mxCell id="CBvx1TgoduzqQ8KUKisL-65" value="day" style="ellipse;whiteSpace=wrap;html=1;fontSize=16;fontStyle=0" parent="1" vertex="1">
          <mxGeometry x="750" y="10" width="60" height="40" as="geometry" />
        </mxCell>
        <mxCell id="CBvx1TgoduzqQ8KUKisL-66" value="month" style="ellipse;whiteSpace=wrap;html=1;fontSize=16;fontStyle=0" parent="1" vertex="1">
          <mxGeometry x="810" y="30" width="60" height="40" as="geometry" />
        </mxCell>
        <mxCell id="CBvx1TgoduzqQ8KUKisL-67" value="" style="endArrow=none;html=1;rounded=0;entryX=0.5;entryY=1;entryDx=0;entryDy=0;exitX=0.5;exitY=0;exitDx=0;exitDy=0;" parent="1" source="CBvx1TgoduzqQ8KUKisL-63" target="CBvx1TgoduzqQ8KUKisL-65" edge="1">
          <mxGeometry width="50" height="50" relative="1" as="geometry">
            <mxPoint x="710" y="100" as="sourcePoint" />
            <mxPoint x="732" y="99" as="targetPoint" />
          </mxGeometry>
        </mxCell>
        <mxCell id="CBvx1TgoduzqQ8KUKisL-68" value="" style="endArrow=none;html=1;rounded=0;entryX=0;entryY=1;entryDx=0;entryDy=0;exitX=1;exitY=0.5;exitDx=0;exitDy=0;" parent="1" source="CBvx1TgoduzqQ8KUKisL-63" target="CBvx1TgoduzqQ8KUKisL-66" edge="1">
          <mxGeometry width="50" height="50" relative="1" as="geometry">
            <mxPoint x="710" y="100" as="sourcePoint" />
            <mxPoint x="732" y="99" as="targetPoint" />
          </mxGeometry>
        </mxCell>
        <mxCell id="CBvx1TgoduzqQ8KUKisL-69" value="year" style="ellipse;whiteSpace=wrap;html=1;fontSize=16;fontStyle=0" parent="1" vertex="1">
          <mxGeometry x="810" y="80" width="60" height="40" as="geometry" />
        </mxCell>
        <mxCell id="CBvx1TgoduzqQ8KUKisL-70" value="" style="endArrow=none;html=1;rounded=0;entryX=0;entryY=0;entryDx=0;entryDy=0;exitX=1;exitY=1;exitDx=0;exitDy=0;" parent="1" source="CBvx1TgoduzqQ8KUKisL-63" target="CBvx1TgoduzqQ8KUKisL-69" edge="1">
          <mxGeometry width="50" height="50" relative="1" as="geometry">
            <mxPoint x="800" y="85" as="sourcePoint" />
            <mxPoint x="829" y="74" as="targetPoint" />
          </mxGeometry>
        </mxCell>
        <mxCell id="CBvx1TgoduzqQ8KUKisL-71" value="id" style="ellipse;whiteSpace=wrap;html=1;fontSize=16;fontStyle=4" parent="1" vertex="1">
          <mxGeometry x="40" y="210" width="60" height="35" as="geometry" />
        </mxCell>
        <mxCell id="CBvx1TgoduzqQ8KUKisL-72" value="" style="endArrow=none;html=1;rounded=0;entryX=0.25;entryY=0;entryDx=0;entryDy=0;exitX=1;exitY=0.5;exitDx=0;exitDy=0;" parent="1" source="CBvx1TgoduzqQ8KUKisL-71" target="CBvx1TgoduzqQ8KUKisL-3" edge="1">
          <mxGeometry width="50" height="50" relative="1" as="geometry">
            <mxPoint x="449" y="246" as="sourcePoint" />
            <mxPoint x="465" y="260" as="targetPoint" />
          </mxGeometry>
        </mxCell>
        <mxCell id="CBvx1TgoduzqQ8KUKisL-73" value="capacity" style="ellipse;whiteSpace=wrap;html=1;fontSize=16;fontStyle=0" parent="1" vertex="1">
          <mxGeometry y="257.5" width="80" height="45" as="geometry" />
        </mxCell>
        <mxCell id="CBvx1TgoduzqQ8KUKisL-74" value="" style="endArrow=none;html=1;rounded=0;entryX=0;entryY=0.25;entryDx=0;entryDy=0;exitX=1;exitY=0.5;exitDx=0;exitDy=0;" parent="1" source="CBvx1TgoduzqQ8KUKisL-73" target="CBvx1TgoduzqQ8KUKisL-3" edge="1">
          <mxGeometry width="50" height="50" relative="1" as="geometry">
            <mxPoint x="110" y="223" as="sourcePoint" />
            <mxPoint x="155" y="260" as="targetPoint" />
          </mxGeometry>
        </mxCell>
        <mxCell id="CBvx1TgoduzqQ8KUKisL-75" value="model" style="ellipse;whiteSpace=wrap;html=1;fontSize=16;fontStyle=0" parent="1" vertex="1">
          <mxGeometry x="30" y="315" width="80" height="45" as="geometry" />
        </mxCell>
        <mxCell id="CBvx1TgoduzqQ8KUKisL-76" value="" style="endArrow=none;html=1;rounded=0;entryX=0.25;entryY=1;entryDx=0;entryDy=0;exitX=1;exitY=0;exitDx=0;exitDy=0;" parent="1" source="CBvx1TgoduzqQ8KUKisL-75" target="CBvx1TgoduzqQ8KUKisL-3" edge="1">
          <mxGeometry width="50" height="50" relative="1" as="geometry">
            <mxPoint x="90" y="290" as="sourcePoint" />
            <mxPoint x="120" y="275" as="targetPoint" />
          </mxGeometry>
        </mxCell>
        <mxCell id="CBvx1TgoduzqQ8KUKisL-77" value="no-of-passengers" style="ellipse;whiteSpace=wrap;html=1;fontSize=16;fontStyle=0" parent="1" vertex="1">
          <mxGeometry x="53.75" y="413.75" width="122.5" height="52.5" as="geometry" />
        </mxCell>
        <mxCell id="CBvx1TgoduzqQ8KUKisL-78" value="" style="endArrow=none;html=1;rounded=0;entryX=0;entryY=0.5;entryDx=0;entryDy=0;exitX=1;exitY=0.5;exitDx=0;exitDy=0;" parent="1" source="CBvx1TgoduzqQ8KUKisL-77" target="CBvx1TgoduzqQ8KUKisL-10" edge="1">
          <mxGeometry width="50" height="50" relative="1" as="geometry">
            <mxPoint x="109" y="332" as="sourcePoint" />
            <mxPoint x="155" y="320" as="targetPoint" />
          </mxGeometry>
        </mxCell>
        <mxCell id="CBvx1TgoduzqQ8KUKisL-79" value="price" style="ellipse;whiteSpace=wrap;html=1;fontSize=16;fontStyle=0" parent="1" vertex="1">
          <mxGeometry x="320" y="440" width="70" height="30" as="geometry" />
        </mxCell>
        <mxCell id="CBvx1TgoduzqQ8KUKisL-80" value="" style="endArrow=none;html=1;rounded=0;entryX=0;entryY=0;entryDx=0;entryDy=0;exitX=1;exitY=0.5;exitDx=0;exitDy=0;" parent="1" source="CBvx1TgoduzqQ8KUKisL-10" target="CBvx1TgoduzqQ8KUKisL-79" edge="1">
          <mxGeometry width="50" height="50" relative="1" as="geometry">
            <mxPoint x="173" y="414" as="sourcePoint" />
            <mxPoint x="205" y="400" as="targetPoint" />
          </mxGeometry>
        </mxCell>
        <mxCell id="CBvx1TgoduzqQ8KUKisL-81" value="departute-date" style="ellipse;whiteSpace=wrap;html=1;fontSize=16;fontStyle=0" parent="1" vertex="1">
          <mxGeometry x="140" y="460" width="90" height="50" as="geometry" />
        </mxCell>
        <mxCell id="CBvx1TgoduzqQ8KUKisL-83" value="" style="endArrow=none;html=1;rounded=0;entryX=0;entryY=1;entryDx=0;entryDy=0;exitX=1;exitY=0;exitDx=0;exitDy=0;" parent="1" source="CBvx1TgoduzqQ8KUKisL-81" target="CBvx1TgoduzqQ8KUKisL-10" edge="1">
          <mxGeometry width="50" height="50" relative="1" as="geometry">
            <mxPoint x="320" y="400" as="sourcePoint" />
            <mxPoint x="333" y="400" as="targetPoint" />
          </mxGeometry>
        </mxCell>
        <mxCell id="CBvx1TgoduzqQ8KUKisL-84" value="arrival-date" style="ellipse;whiteSpace=wrap;html=1;fontSize=16;fontStyle=0" parent="1" vertex="1">
          <mxGeometry x="285" y="480" width="90" height="30" as="geometry" />
        </mxCell>
        <mxCell id="CBvx1TgoduzqQ8KUKisL-85" value="" style="endArrow=none;html=1;rounded=0;entryX=1;entryY=1;entryDx=0;entryDy=0;exitX=0;exitY=0;exitDx=0;exitDy=0;" parent="1" source="CBvx1TgoduzqQ8KUKisL-84" target="CBvx1TgoduzqQ8KUKisL-10" edge="1">
          <mxGeometry width="50" height="50" relative="1" as="geometry">
            <mxPoint x="217" y="434" as="sourcePoint" />
            <mxPoint x="234" y="420" as="targetPoint" />
          </mxGeometry>
        </mxCell>
        <mxCell id="CBvx1TgoduzqQ8KUKisL-86" value="travel-time" style="ellipse;whiteSpace=wrap;html=1;fontSize=16;fontStyle=0" parent="1" vertex="1">
          <mxGeometry x="278" y="380" width="90" height="30" as="geometry" />
        </mxCell>
        <mxCell id="CBvx1TgoduzqQ8KUKisL-87" value="" style="endArrow=none;html=1;rounded=0;entryX=1;entryY=0;entryDx=0;entryDy=0;exitX=0.5;exitY=1;exitDx=0;exitDy=0;" parent="1" source="CBvx1TgoduzqQ8KUKisL-86" target="CBvx1TgoduzqQ8KUKisL-10" edge="1">
          <mxGeometry width="50" height="50" relative="1" as="geometry">
            <mxPoint x="310" y="435" as="sourcePoint" />
            <mxPoint x="291" y="420" as="targetPoint" />
          </mxGeometry>
        </mxCell>
        <mxCell id="CBvx1TgoduzqQ8KUKisL-88" value="id" style="ellipse;whiteSpace=wrap;html=1;fontSize=16;fontStyle=4" parent="1" vertex="1">
          <mxGeometry x="130" y="640" width="60" height="35" as="geometry" />
        </mxCell>
        <mxCell id="CBvx1TgoduzqQ8KUKisL-89" value="" style="endArrow=none;html=1;rounded=0;exitX=0.5;exitY=0;exitDx=0;exitDy=0;entryX=0.25;entryY=1;entryDx=0;entryDy=0;" parent="1" source="CBvx1TgoduzqQ8KUKisL-88" target="CBvx1TgoduzqQ8KUKisL-4" edge="1">
          <mxGeometry width="50" height="50" relative="1" as="geometry">
            <mxPoint x="305" y="570" as="sourcePoint" />
            <mxPoint x="355" y="520" as="targetPoint" />
          </mxGeometry>
        </mxCell>
        <mxCell id="CBvx1TgoduzqQ8KUKisL-93" value="origin" style="ellipse;whiteSpace=wrap;html=1;fontSize=16;fontStyle=0" parent="1" vertex="1">
          <mxGeometry x="165" y="675" width="60" height="30" as="geometry" />
        </mxCell>
        <mxCell id="CBvx1TgoduzqQ8KUKisL-94" value="destination" style="ellipse;whiteSpace=wrap;html=1;fontSize=16;fontStyle=0" parent="1" vertex="1">
          <mxGeometry x="180" y="705" width="105" height="40" as="geometry" />
        </mxCell>
        <mxCell id="CBvx1TgoduzqQ8KUKisL-95" value="" style="endArrow=none;html=1;rounded=0;exitX=0.5;exitY=0;exitDx=0;exitDy=0;entryX=0.333;entryY=1.008;entryDx=0;entryDy=0;entryPerimeter=0;" parent="1" source="CBvx1TgoduzqQ8KUKisL-93" target="CBvx1TgoduzqQ8KUKisL-4" edge="1">
          <mxGeometry width="50" height="50" relative="1" as="geometry">
            <mxPoint x="170" y="650" as="sourcePoint" />
            <mxPoint x="233" y="640" as="targetPoint" />
          </mxGeometry>
        </mxCell>
        <mxCell id="CBvx1TgoduzqQ8KUKisL-96" value="" style="endArrow=none;html=1;rounded=0;exitX=0.448;exitY=0.025;exitDx=0;exitDy=0;entryX=0.5;entryY=1;entryDx=0;entryDy=0;exitPerimeter=0;" parent="1" source="CBvx1TgoduzqQ8KUKisL-94" target="CBvx1TgoduzqQ8KUKisL-4" edge="1">
          <mxGeometry width="50" height="50" relative="1" as="geometry">
            <mxPoint x="205" y="685" as="sourcePoint" />
            <mxPoint x="233" y="640" as="targetPoint" />
          </mxGeometry>
        </mxCell>
        <mxCell id="CBvx1TgoduzqQ8KUKisL-97" value="distance" style="ellipse;whiteSpace=wrap;html=1;fontSize=16;fontStyle=0" parent="1" vertex="1">
          <mxGeometry x="255" y="670" width="105" height="40" as="geometry" />
        </mxCell>
        <mxCell id="CBvx1TgoduzqQ8KUKisL-98" value="" style="endArrow=none;html=1;rounded=0;exitX=0;exitY=0;exitDx=0;exitDy=0;entryX=0.574;entryY=0.987;entryDx=0;entryDy=0;entryPerimeter=0;" parent="1" source="CBvx1TgoduzqQ8KUKisL-97" target="CBvx1TgoduzqQ8KUKisL-4" edge="1">
          <mxGeometry width="50" height="50" relative="1" as="geometry">
            <mxPoint x="237" y="716" as="sourcePoint" />
            <mxPoint x="268" y="640" as="targetPoint" />
          </mxGeometry>
        </mxCell>
        <mxCell id="CBvx1TgoduzqQ8KUKisL-99" value="classfication" style="ellipse;whiteSpace=wrap;html=1;fontSize=16;fontStyle=0" parent="1" vertex="1">
          <mxGeometry x="310" y="630" width="105" height="40" as="geometry" />
        </mxCell>
        <mxCell id="CBvx1TgoduzqQ8KUKisL-100" value="" style="endArrow=none;html=1;rounded=0;exitX=0;exitY=0.5;exitDx=0;exitDy=0;entryX=0.75;entryY=1;entryDx=0;entryDy=0;" parent="1" source="CBvx1TgoduzqQ8KUKisL-99" target="CBvx1TgoduzqQ8KUKisL-4" edge="1">
          <mxGeometry width="50" height="50" relative="1" as="geometry">
            <mxPoint x="280" y="686" as="sourcePoint" />
            <mxPoint x="278" y="639" as="targetPoint" />
          </mxGeometry>
        </mxCell>
        <mxCell id="CBvx1TgoduzqQ8KUKisL-101" value="major" style="ellipse;whiteSpace=wrap;html=1;fontSize=16;fontStyle=0" parent="1" vertex="1">
          <mxGeometry x="75" y="7.5" width="80" height="45" as="geometry" />
        </mxCell>
        <mxCell id="CBvx1TgoduzqQ8KUKisL-102" value="hostesses" style="ellipse;whiteSpace=wrap;html=1;fontSize=16;fontStyle=0" parent="1" vertex="1">
          <mxGeometry x="225" y="-50" width="80" height="45" as="geometry" />
        </mxCell>
        <mxCell id="CBvx1TgoduzqQ8KUKisL-103" value="assistant" style="ellipse;whiteSpace=wrap;html=1;fontSize=16;fontStyle=0" parent="1" vertex="1">
          <mxGeometry x="135" y="-35" width="80" height="45" as="geometry" />
        </mxCell>
        <mxCell id="CBvx1TgoduzqQ8KUKisL-104" value="hostess" style="ellipse;whiteSpace=wrap;html=1;fontSize=16;fontStyle=0" parent="1" vertex="1">
          <mxGeometry x="227.5" y="-45" width="75" height="35" as="geometry" />
        </mxCell>
        <mxCell id="CBvx1TgoduzqQ8KUKisL-105" value="" style="endArrow=none;html=1;rounded=0;entryX=0.5;entryY=1;entryDx=0;entryDy=0;exitX=0.75;exitY=0;exitDx=0;exitDy=0;" parent="1" source="CBvx1TgoduzqQ8KUKisL-5" target="CBvx1TgoduzqQ8KUKisL-102" edge="1">
          <mxGeometry width="50" height="50" relative="1" as="geometry">
            <mxPoint x="250" y="80" as="sourcePoint" />
            <mxPoint x="300" y="30" as="targetPoint" />
          </mxGeometry>
        </mxCell>
        <mxCell id="CBvx1TgoduzqQ8KUKisL-106" value="" style="endArrow=none;html=1;rounded=0;entryX=1;entryY=1;entryDx=0;entryDy=0;exitX=0.5;exitY=0;exitDx=0;exitDy=0;" parent="1" source="CBvx1TgoduzqQ8KUKisL-5" target="CBvx1TgoduzqQ8KUKisL-103" edge="1">
          <mxGeometry width="50" height="50" relative="1" as="geometry">
            <mxPoint x="295" y="30" as="sourcePoint" />
            <mxPoint x="275" y="5" as="targetPoint" />
          </mxGeometry>
        </mxCell>
        <mxCell id="CBvx1TgoduzqQ8KUKisL-107" value="" style="endArrow=none;html=1;rounded=0;entryX=1;entryY=1;entryDx=0;entryDy=0;exitX=0;exitY=0.5;exitDx=0;exitDy=0;" parent="1" source="CBvx1TgoduzqQ8KUKisL-5" target="CBvx1TgoduzqQ8KUKisL-101" edge="1">
          <mxGeometry width="50" height="50" relative="1" as="geometry">
            <mxPoint x="260" y="30" as="sourcePoint" />
            <mxPoint x="203" y="3" as="targetPoint" />
          </mxGeometry>
        </mxCell>
        <mxCell id="CBvx1TgoduzqQ8KUKisL-108" value="id" style="ellipse;whiteSpace=wrap;html=1;fontSize=16;fontStyle=4" parent="1" vertex="1">
          <mxGeometry x="535" y="520" width="40" height="30" as="geometry" />
        </mxCell>
        <mxCell id="CBvx1TgoduzqQ8KUKisL-110" value="date" style="ellipse;whiteSpace=wrap;html=1;fontSize=16;fontStyle=0" parent="1" vertex="1">
          <mxGeometry x="595" y="520" width="40" height="30" as="geometry" />
        </mxCell>
        <mxCell id="CBvx1TgoduzqQ8KUKisL-111" value="" style="endArrow=none;html=1;rounded=0;entryX=0.25;entryY=1;entryDx=0;entryDy=0;exitX=0.5;exitY=0;exitDx=0;exitDy=0;" parent="1" source="CBvx1TgoduzqQ8KUKisL-108" target="CBvx1TgoduzqQ8KUKisL-6" edge="1">
          <mxGeometry width="50" height="50" relative="1" as="geometry">
            <mxPoint x="490" y="370" as="sourcePoint" />
            <mxPoint x="500" y="320" as="targetPoint" />
          </mxGeometry>
        </mxCell>
        <mxCell id="CBvx1TgoduzqQ8KUKisL-112" value="" style="endArrow=none;html=1;rounded=0;entryX=0.5;entryY=1;entryDx=0;entryDy=0;exitX=0.5;exitY=0;exitDx=0;exitDy=0;" parent="1" source="CBvx1TgoduzqQ8KUKisL-110" target="CBvx1TgoduzqQ8KUKisL-6" edge="1">
          <mxGeometry width="50" height="50" relative="1" as="geometry">
            <mxPoint x="565" y="530" as="sourcePoint" />
            <mxPoint x="605" y="510" as="targetPoint" />
          </mxGeometry>
        </mxCell>
        <mxCell id="CBvx1TgoduzqQ8KUKisL-113" value="description" style="ellipse;whiteSpace=wrap;html=1;fontSize=16;fontStyle=0" parent="1" vertex="1">
          <mxGeometry x="590" y="560" width="100" height="30" as="geometry" />
        </mxCell>
        <mxCell id="CBvx1TgoduzqQ8KUKisL-114" value="" style="endArrow=none;html=1;rounded=0;entryX=0.75;entryY=1;entryDx=0;entryDy=0;exitX=0.5;exitY=0;exitDx=0;exitDy=0;" parent="1" source="CBvx1TgoduzqQ8KUKisL-113" target="CBvx1TgoduzqQ8KUKisL-6" edge="1">
          <mxGeometry width="50" height="50" relative="1" as="geometry">
            <mxPoint x="625" y="530" as="sourcePoint" />
            <mxPoint x="640" y="510" as="targetPoint" />
          </mxGeometry>
        </mxCell>
        <mxCell id="CBvx1TgoduzqQ8KUKisL-115" value="paid" style="ellipse;whiteSpace=wrap;html=1;fontSize=16;fontStyle=0" parent="1" vertex="1">
          <mxGeometry x="670" y="530" width="100" height="30" as="geometry" />
        </mxCell>
        <mxCell id="CBvx1TgoduzqQ8KUKisL-116" value="receieved" style="ellipse;whiteSpace=wrap;html=1;fontSize=16;fontStyle=0" parent="1" vertex="1">
          <mxGeometry x="710" y="495" width="100" height="30" as="geometry" />
        </mxCell>
        <mxCell id="CBvx1TgoduzqQ8KUKisL-117" value="" style="endArrow=none;html=1;rounded=0;entryX=0.845;entryY=0.998;entryDx=0;entryDy=0;exitX=0;exitY=0;exitDx=0;exitDy=0;entryPerimeter=0;" parent="1" source="CBvx1TgoduzqQ8KUKisL-115" target="CBvx1TgoduzqQ8KUKisL-6" edge="1">
          <mxGeometry width="50" height="50" relative="1" as="geometry">
            <mxPoint x="650" y="570" as="sourcePoint" />
            <mxPoint x="675" y="510" as="targetPoint" />
          </mxGeometry>
        </mxCell>
        <mxCell id="CBvx1TgoduzqQ8KUKisL-118" value="" style="endArrow=none;html=1;rounded=0;entryX=1;entryY=0.75;entryDx=0;entryDy=0;exitX=0;exitY=0;exitDx=0;exitDy=0;" parent="1" source="CBvx1TgoduzqQ8KUKisL-116" target="CBvx1TgoduzqQ8KUKisL-6" edge="1">
          <mxGeometry width="50" height="50" relative="1" as="geometry">
            <mxPoint x="695" y="544" as="sourcePoint" />
            <mxPoint x="688" y="510" as="targetPoint" />
          </mxGeometry>
        </mxCell>
        <mxCell id="9yuzsX4emn-sHdz5RFuz-1" value="Transaction" style="rounded=0;whiteSpace=wrap;html=1;fontSize=18;fontStyle=1" vertex="1" parent="1">
          <mxGeometry x="560" y="440" width="140" height="60" as="geometry" />
        </mxCell>
      </root>
    </mxGraphModel>
  </diagram>
</mxfile>
